# xmcd
#
# Track frame offsets:
#	182
#	13580
#	26085
#	40207
#	55060
#	70035
#	84592
#	98072
#	113460
#	128447
#	141752
#	154640
#	169055
#	183025
#	195525
#	209337
#
# Disc length: 2984 seconds
#
# Revision: 0
# Processed by: cddbd v1.4PL0 Copyright (c) Steve Scherf et al.
# Submitted via: audiograbber 1.80.04
#
DISCID=c30ba610
DTITLE=Various Artist - 16 Succès Volume 10
DYEAR=1992
DGENRE=pop
TTITLE0=Lucienne Boyer - Si petite
TTITLE1=Jean Lumière - Je t'aime c'est tout
TTITLE2=Berthe Sylvia and Fred Gouin - Ferme tes jolis yeux
TTITLE3=Alibert avec Jenny Helie - J'ai rêvé d'une fleur
TTITLE4=Jeanne Aubert - C'est une petite étoile
TTITLE5=Leo Marjane - La chapelle au clair de Lune
TTITLE6=Germaine Sablon - Le moulin qui jase
TTITLE7=Maurice Chevalier - Donnez-moi la main, mam'zelle
TTITLE8=Lucienne Dugard - Un jour, mon prince viendra
TTITLE9=Tino Rossi - Tango de Marilou
TTITLE10=Elyane Celis - Vous n'êtes pas venu dimanche
TTITLE11=Eva Bush - Il ne faut pas biser un rêve
TTITLE12=Jean Sablon - Vous, qui passez me voir
TTITLE13=Reda Caire - Si tu reviens
TTITLE14=Jean Tranchant - Les prénoms effacés
TTITLE15=Lys Gauty - Le chaland qui passe
EXTD=
EXTT0=
EXTT1=
EXTT2=
EXTT3=
EXTT4=
EXTT5=
EXTT6=
EXTT7=
EXTT8=
EXTT9=
EXTT10=
EXTT11=
EXTT12=
EXTT13=
EXTT14=
EXTT15=
PLAYORDER=
